<svg width="160" height="160" viewBox="0 0 160 160" xmlns="http://www.w3.org/2000/svg" role="img" aria-label="TWC emblem">
  <defs>
    <linearGradient id="gold" x1="0%" y1="0%" x2="100%" y2="100%">
      <stop offset="0%" stop-color="#f6d58b"/>
      <stop offset="100%" stop-color="#d4af37"/>
    </linearGradient>
  </defs>
  <circle cx="80" cy="80" r="72" fill="#0b2d53" stroke="url(#gold)" stroke-width="8"/>
  <path d="M65 40c10 10 10 27 0 37l-8 8c-8 8-8 21 0 29-16-4-28-18-28-36 0-20 16-36 36-36z" fill="url(#gold)"/>
  <path d="M95 40c-10 10-10 27 0 37l8 8c8 8 8 21 0 29 16-4 28-18 28-36 0-20-16-36-36-36z" fill="url(#gold)"/>
  <circle cx="53" cy="52" r="8" fill="#fff"/>
  <circle cx="107" cy="52" r="8" fill="#fff"/>
  <polygon points="80,25 90,55 70,55" fill="url(#gold)"/>
</svg>

